<svg width="51" height="52" viewBox="0 0 51 52" fill="none" xmlns="http://www.w3.org/2000/svg">
<path fill-rule="evenodd" clip-rule="evenodd" d="M47.8125 26C47.8125 20.0824 45.4617 14.4071 41.2773 10.2227C37.0929 6.03827 31.4176 3.6875 25.5 3.6875C19.5824 3.6875 13.9071 6.03828 9.72268 10.2227C5.53828 14.4071 3.1875 20.0824 3.1875 26C3.1875 31.9176 5.53828 37.5929 9.72268 41.7773C13.9071 45.9617 19.5824 48.3125 25.5 48.3125C31.4176 48.3125 37.0929 45.9617 41.2773 41.7773C45.4617 37.5929 47.8125 31.9176 47.8125 26ZM1.58542e-06 26C9.94174e-07 19.237 2.6866 12.751 7.46878 7.96878C12.251 3.1866 18.737 0.499999 25.5 0.499998C32.263 0.499998 38.749 3.1866 43.5312 7.96877C48.3134 12.751 51 19.237 51 26C51 32.763 48.3134 39.249 43.5312 44.0312C38.749 48.8134 32.263 51.5 25.5 51.5C18.737 51.5 12.251 48.8134 7.46878 44.0312C2.6866 39.249 2.17666e-06 32.763 1.58542e-06 26ZM23.9063 37.1563C23.9063 37.5789 24.0742 37.9843 24.373 38.2832C24.6719 38.5821 25.0773 38.75 25.5 38.75C25.9227 38.75 26.3281 38.5821 26.627 38.2832C26.9258 37.9843 27.0938 37.5789 27.0938 37.1563L27.0937 18.6911L33.9341 25.5346C34.2334 25.8339 34.6393 26.002 35.0625 26.002C35.4857 26.002 35.8916 25.8339 36.1909 25.5346C36.4901 25.2354 36.6583 24.8295 36.6583 24.4062C36.6583 23.983 36.4901 23.5771 36.1909 23.2779L26.6284 13.7154C26.4803 13.567 26.3045 13.4492 26.1108 13.3689C25.9172 13.2885 25.7096 13.2472 25.5 13.2472C25.2904 13.2472 25.0828 13.2885 24.8892 13.3689C24.6955 13.4492 24.5197 13.567 24.3716 13.7154L14.8091 23.2779C14.5099 23.5771 14.3417 23.983 14.3417 24.4063C14.3417 24.8295 14.5099 25.2354 14.8091 25.5346C15.1084 25.8339 15.5143 26.002 15.9375 26.002C16.3607 26.002 16.7666 25.8339 17.0659 25.5346L23.9062 18.6911L23.9063 37.1563Z" fill="#C9C9C9"/>
</svg>
