<?xml version="1.0" encoding="UTF-8" standalone="no"?>
<svg
   version="1.1"
   width="52px"
   height="52px"
   id="svg12"
   viewBox="0 0 595.27557 421"
   sodipodi:docname="лого(18в).cdr"
   xmlns:inkscape="http://www.inkscape.org/namespaces/inkscape"
   xmlns:sodipodi="http://sodipodi.sourceforge.net/DTD/sodipodi-0.dtd"
   xmlns="http://www.w3.org/2000/svg"
   xmlns:svg="http://www.w3.org/2000/svg">
  <defs
     id="defs16" />
  <sodipodi:namedview
     id="namedview14"
     pagecolor="#ffffff"
     bordercolor="#ffffff"
     borderopacity="0.25"
     inkscape:showpageshadow="2"
     inkscape:pageopacity="0.0"
     inkscape:pagecheckerboard="0"
     inkscape:deskcolor="#ffffff"
     inkscape:document-units="pt" />
  <g
     id="Layer1000">
    <path
       d="m 100.9081,478.0204 c 0.0729,0 0.1094,0.1092 0.1094,0.3281 0,0.2186 -0.0365,0.3278 -0.1094,0.3278 -1.4582,0 -2.5882,0.5194 -3.3902,1.5585 -0.8019,1.0389 -1.2027,2.5244 -1.2027,4.4564 v 28.2686 c 0,0.1095 -0.0913,0.1825 -0.2734,0.2187 -0.1825,0.0365 -0.3099,0.0182 -0.3829,-0.0545 L 70.0147,483.3242 v 22.2541 c 0,1.932 0.3829,3.4084 1.1483,4.429 0.7654,1.0206 1.8772,1.5309 3.3354,1.5309 0.0727,0 0.1092,0.1094 0.1092,0.3281 0,0.2186 -0.0365,0.3281 -0.1092,0.3281 -0.9844,0 -1.7315,-0.0182 -2.2418,-0.0547 l -2.8981,-0.0548 -3.226,0.0548 c -0.5833,0.0365 -1.4217,0.0547 -2.5152,0.0547 -0.1095,0 -0.164,-0.1095 -0.164,-0.3281 0,-0.2187 0.0545,-0.3281 0.164,-0.3281 1.5673,0 2.7795,-0.5103 3.6361,-1.5309 0.8567,-1.0206 1.2849,-2.497 1.2849,-4.429 v -23.9491 c -1.0206,-1.0936 -1.9411,-1.8593 -2.7613,-2.2966 -0.8201,-0.4373 -1.6677,-0.6563 -2.5426,-0.6563 -0.0727,0 -0.1092,-0.1092 -0.1092,-0.3278 0,-0.2189 0.0365,-0.3281 0.1092,-0.3281 l 2.1874,0.0547 c 0.4738,0.0362 1.148,0.0545 2.0229,0.0545 l 3.4996,-0.0545 c 0.4374,-0.0365 0.9659,-0.0547 1.5856,-0.0547 0.2917,0 0.5103,0.0727 0.656,0.2186 0.146,0.1457 0.3646,0.4373 0.6563,0.8749 l 1.3122,1.7496 19.6844,23.1839 v -19.3562 c 0,-1.932 -0.3829,-3.4175 -1.1483,-4.4564 -0.7655,-1.0391 -1.859,-1.5585 -3.2807,-1.5585 -0.073,0 -0.1095,-0.1092 -0.1095,-0.3278 0,-0.2189 0.0365,-0.3281 0.1095,-0.3281 l 2.2418,0.0547 c 1.1666,0.0727 2.1324,0.1092 2.8979,0.1092 0.7292,0 1.7133,-0.0365 2.9528,-0.1092 z m 48.0296,25.6442 c 0,-0.073 0.073,-0.1095 0.2187,-0.1095 0.1094,0 0.2098,0.0274 0.3007,0.0821 0.0913,0.0547 0.1369,0.1003 0.1369,0.1366 -0.3646,2.7704 -0.5468,5.3038 -0.5468,7.6004 0,0.2917 -0.0548,0.5012 -0.1642,0.6289 -0.1092,0.1275 -0.3279,0.1913 -0.656,0.1913 h -23.7305 c -0.1094,0 -0.1642,-0.1095 -0.1642,-0.3281 0,-0.2187 0.0548,-0.3281 0.1642,-0.3281 1.2393,0 2.1415,-0.091 2.7066,-0.2734 0.565,-0.1822 0.9476,-0.5377 1.1482,-1.0662 0.2005,-0.5286 0.3008,-1.3396 0.3008,-2.4332 v -25.3161 c 0,-1.0935 -0.1003,-1.8955 -0.3008,-2.406 -0.2006,-0.5103 -0.5923,-0.8655 -1.1756,-1.0662 -0.5833,-0.2004 -1.4764,-0.3008 -2.6792,-0.3008 -0.1094,0 -0.1642,-0.1092 -0.1642,-0.3278 0,-0.2189 0.0548,-0.3281 0.1642,-0.3281 h 22.7461 c 0.3647,0 0.5468,0.1639 0.5468,0.492 l 0.1095,7.1082 c 0,0.0729 -0.1004,0.1277 -0.3008,0.1641 -0.2004,0.0365 -0.319,0 -0.3555,-0.1094 -0.8749,-4.1556 -3.4081,-6.2333 -7.6002,-6.2333 h -2.1871 c -1.3122,0 -2.2418,0.2369 -2.7886,0.7107 -0.5468,0.4739 -0.8202,1.2758 -0.8202,2.4058 v 11.1546 h 5.2492 c 4.0096,0 6.0146,-1.3487 6.0146,-4.0462 0,-0.1094 0.1003,-0.1642 0.3007,-0.1642 0.2004,0 0.3008,0.0548 0.3008,0.1642 l -0.0548,4.7569 0.0548,2.5699 c 0.0729,1.1666 0.1092,2.1142 0.1092,2.8434 0,0.0727 -0.1092,0.1092 -0.3279,0.1092 -0.2189,0 -0.3281,-0.0365 -0.3281,-0.1092 0,-3.135 -2.0415,-4.7024 -6.1241,-4.7024 h -5.1944 v 12.4121 c 0,1.2027 0.2278,2.0411 0.6834,2.5152 0.4558,0.4738 1.2668,0.7107 2.4334,0.7107 h 2.6791 c 4.8846,0 7.9831,-2.3693 9.2953,-7.1081 z m 61.8636,7.8736 c 0.1092,0 0.164,0.1094 0.164,0.3281 0,0.2186 -0.0548,0.3281 -0.164,0.3281 h -8.8034 c -0.8382,0 -2.3967,-1.4582 -4.675,-4.3742 -2.2781,-2.9164 -5.0394,-6.999 -8.2839,-12.2481 -0.8019,0.0729 -1.4214,0.1094 -1.859,0.1094 -0.8019,0 -1.7498,-0.0365 -2.8433,-0.1094 v 12.1933 c 0,1.1301 0.1003,1.9502 0.3007,2.4605 0.2007,0.5103 0.5833,0.8567 1.1483,1.0389 0.5651,0.1824 1.4673,0.2734 2.7066,0.2734 0.0729,0 0.1094,0.1094 0.1094,0.3281 0,0.2186 -0.0365,0.3281 -0.1094,0.3281 -1.2028,0 -2.1324,-0.0182 -2.7887,-0.0547 l -4.0461,-0.0548 -3.9369,0.0548 c -0.6925,0.0365 -1.6404,0.0547 -2.8431,0.0547 -0.1095,0 -0.1642,-0.1095 -0.1642,-0.3281 0,-0.2187 0.0547,-0.3281 0.1642,-0.3281 1.2392,0 2.1415,-0.091 2.7065,-0.2734 0.565,-0.1822 0.9568,-0.5377 1.1757,-1.0662 0.2186,-0.5286 0.3278,-1.3396 0.3278,-2.4332 v -25.3161 c 0,-1.0935 -0.1,-1.8955 -0.3005,-2.406 -0.2006,-0.5103 -0.5923,-0.8655 -1.1756,-1.0662 -0.5833,-0.2004 -1.4764,-0.3008 -2.6794,-0.3008 -0.0728,0 -0.1092,-0.1092 -0.1092,-0.3278 0,-0.2189 0.0364,-0.3281 0.1092,-0.3281 l 2.8433,0.0547 c 1.6039,0.0727 2.8981,0.1092 3.8822,0.1092 1.203,0 2.5153,-0.0547 3.9369,-0.1639 0.4738,-0.0365 1.048,-0.073 1.7225,-0.1095 0.6742,-0.0365 1.4305,-0.0547 2.2689,-0.0547 3.1715,0 5.6229,0.6197 7.3545,1.8592 1.7315,1.2393 2.597,2.9708 2.597,5.1944 0,2.005 -0.5559,3.8093 -1.6677,5.4131 -1.1118,1.6039 -2.597,2.8799 -4.456,3.8275 2.989,4.4107 5.486,7.8556 7.4907,10.3343 2.0049,2.4788 3.7821,4.274 5.3312,5.3858 1.5494,1.1118 3.0712,1.6677 4.5658,1.6677 z m -26.4646,-17.4423 c 0.8749,0.1457 1.932,0.2187 3.1715,0.2187 2.3693,0 4.0643,-0.5924 5.0852,-1.7772 1.0206,-1.1848 1.5309,-3.0894 1.5309,-5.7138 0,-2.9526 -0.5012,-5.0123 -1.5038,-6.1788 -1.0024,-1.1665 -2.4514,-1.7495 -4.3469,-1.7495 -1.4217,0 -2.4331,0.2642 -3.0347,0.7928 -0.6015,0.5285 -0.9022,1.4852 -0.9022,2.8704 z m 63.8868,18.7547 c -3.3902,0 -6.4066,-0.793 -9.0495,-2.3786 -2.6427,-1.5856 -4.6841,-3.7363 -6.1241,-6.4519 -1.4396,-2.716 -2.1597,-5.6776 -2.1597,-8.8854 0,-3.7547 0.9479,-6.9715 2.8433,-9.6507 1.8955,-2.6794 4.3287,-4.6933 7.2997,-6.042 2.9709,-1.3489 6.0055,-2.0232 9.104,-2.0232 3.4629,0 6.5067,0.8111 9.1314,2.4332 2.6244,1.6221 4.6385,3.7636 6.0419,6.4248 1.4035,2.6609 2.105,5.486 2.105,8.4751 0,3.3172 -0.8749,6.3609 -2.6244,9.1313 -1.7498,2.7704 -4.092,4.9575 -7.0263,6.5614 -2.9343,1.6041 -6.1149,2.406 -9.5413,2.406 z m 1.859,-1.3124 c 2.1871,0 4.1465,-0.5922 5.878,-1.7769 1.7313,-1.1848 3.0983,-2.9255 4.1009,-5.2218 1.0023,-2.2966 1.5035,-5.0305 1.5035,-8.202 0,-3.3534 -0.5559,-6.3609 -1.6677,-9.0219 -1.1118,-2.6609 -2.6974,-4.7388 -4.7571,-6.2332 -2.0594,-1.4947 -4.4743,-2.2419 -7.2447,-2.2419 -3.5359,0 -6.2791,1.2666 -8.2291,3.8001 -1.9502,2.5335 -2.9255,6.042 -2.9255,10.5257 0,3.4628 0.5742,6.5978 1.7225,9.4047 1.1483,2.8069 2.7339,5.0031 4.7571,6.5887 2.0229,1.5857 4.3104,2.3785 6.8621,2.3785 z m 75.6423,-33.5178 c 0.1095,0 0.1642,0.1092 0.1642,0.3281 0,0.2186 -0.0547,0.3278 -0.1642,0.3278 -1.3122,0 -2.5152,0.4923 -3.6088,1.4764 -1.0935,0.9841 -1.9867,2.4058 -2.6792,4.2651 l -10.6077,27.7219 c -0.0365,0.1459 -0.2369,0.2186 -0.6015,0.2186 -0.3644,0 -0.5648,-0.0727 -0.6013,-0.2186 l -13.8337,-29.5812 c -0.6562,-1.3487 -1.3122,-2.3328 -1.9684,-2.9525 -0.6563,-0.6198 -1.44,-0.9297 -2.3514,-0.9297 -0.1092,0 -0.1639,-0.1092 -0.1639,-0.3278 0,-0.2189 0.0547,-0.3281 0.1639,-0.3281 l 1.4217,0.0547 c 0.802,0.0727 1.7133,0.1092 2.7339,0.1092 2.5518,0 4.8483,-0.0365 6.8895,-0.1092 0.5833,-0.0365 1.3307,-0.0547 2.2419,-0.0547 0.1094,0 0.1642,0.1092 0.1642,0.3281 0,0.2186 -0.0548,0.3278 -0.1642,0.3278 -2.2963,0 -3.4446,0.802 -3.4446,2.4061 0,0.6195 0.1821,1.3122 0.5467,2.0776 l 10.1702,21.7621 7.9831,-20.7232 c 0.3281,-0.8747 0.492,-1.6586 0.492,-2.3511 0,-1.0206 -0.3372,-1.8045 -1.0115,-2.3513 -0.6744,-0.5468 -1.6859,-0.8202 -3.0346,-0.8202 -0.1095,0 -0.1639,-0.1092 -0.1639,-0.3278 0,-0.2189 0.0544,-0.3281 0.1639,-0.3281 l 2.6244,0.0547 c 1.3852,0.0727 2.6612,0.1092 3.8278,0.1092 0.6924,0 1.5491,-0.0365 2.5697,-0.1092 z m 32.173,29.745 c 0,1.1301 0.0912,1.9502 0.2734,2.4605 0.1822,0.5103 0.5559,0.8567 1.1209,1.0389 0.5651,0.1824 1.4671,0.2734 2.7066,0.2734 0.1094,0 0.1639,0.1094 0.1639,0.3281 0,0.2186 -0.0545,0.3281 -0.1639,0.3281 -1.1665,0 -2.0959,-0.0182 -2.7886,-0.0547 l -4.0462,-0.0548 -3.9369,0.0548 c -0.6925,0.0365 -1.6403,0.0547 -2.8434,0.0547 -0.1092,0 -0.1639,-0.1095 -0.1639,-0.3281 0,-0.2187 0.0547,-0.3281 0.1639,-0.3281 1.2395,0 2.1418,-0.091 2.7066,-0.2734 0.565,-0.1822 0.957,-0.5377 1.1756,-1.0662 0.2187,-0.5286 0.3282,-1.3396 0.3282,-2.4332 v -25.3161 c 0,-1.0935 -0.1095,-1.8955 -0.3282,-2.406 -0.2186,-0.5103 -0.6106,-0.8655 -1.1756,-1.0662 -0.5648,-0.2004 -1.4671,-0.3008 -2.7066,-0.3008 -0.1092,0 -0.1639,-0.1092 -0.1639,-0.3278 0,-0.2189 0.0547,-0.3281 0.1639,-0.3281 l 2.8434,0.0547 c 1.6039,0.0727 2.9161,0.1092 3.9369,0.1092 1.1301,0 2.497,-0.0365 4.1009,-0.1092 l 2.7339,-0.0547 c 0.1094,0 0.1639,0.1092 0.1639,0.3281 0,0.2186 -0.0545,0.3278 -0.1639,0.3278 -1.203,0 -2.0868,0.1095 -2.6518,0.3282 -0.565,0.2186 -0.9479,0.5923 -1.1483,1.1209 -0.2007,0.5285 -0.3008,1.3396 -0.3008,2.4331 z m 38.2424,-0.2186 c 0,0.9841 0.0818,1.695 0.246,2.1324 0.1639,0.4375 0.4829,0.7289 0.9567,0.8749 0.4741,0.1456 1.2395,0.2186 2.2966,0.2186 h 3.2807 c 2.5882,0 4.7753,-0.7198 6.5614,-2.1597 1.7862,-1.44 2.971,-3.3811 3.554,-5.8233 0.0365,-0.1095 0.146,-0.1548 0.3281,-0.1366 0.1825,0.018 0.2734,0.0818 0.2734,0.1913 -0.3281,3.4264 -0.492,6.2697 -0.492,8.5298 0,0.2917 -0.0547,0.5012 -0.1639,0.6289 -0.1095,0.1275 -0.3282,0.1913 -0.6563,0.1913 h -25.5895 c -0.0729,0 -0.1094,-0.1095 -0.1094,-0.3281 0,-0.2187 0.0365,-0.3281 0.1094,-0.3281 1.2393,0 2.1415,-0.091 2.7066,-0.2734 0.565,-0.1822 0.9476,-0.5377 1.1483,-1.0662 0.2004,-0.5286 0.3007,-1.3396 0.3007,-2.4332 v -25.3161 c 0,-1.0935 -0.1003,-1.8955 -0.3007,-2.406 -0.2007,-0.5103 -0.5924,-0.8655 -1.1757,-1.0662 -0.5833,-0.2004 -1.4764,-0.3008 -2.6792,-0.3008 -0.0729,0 -0.1094,-0.1092 -0.1094,-0.3278 0,-0.2189 0.0365,-0.3281 0.1094,-0.3281 l 2.7887,0.0547 c 1.6038,0.0727 2.916,0.1092 3.9366,0.1092 1.0936,0 2.4423,-0.0365 4.0464,-0.1092 l 2.7339,-0.0547 c 0.1092,0 0.1639,0.1092 0.1639,0.3281 0,0.2186 -0.0547,0.3278 -0.1639,0.3278 -1.203,0 -2.087,0.1004 -2.6521,0.3008 -0.565,0.2007 -0.9476,0.565 -1.148,1.0936 -0.2007,0.5285 -0.3007,1.3395 -0.3007,2.4334 z m 50.0528,0 c 0,0.9841 0.0818,1.695 0.246,2.1324 0.164,0.4375 0.483,0.7289 0.9568,0.8749 0.474,0.1456 1.2395,0.2186 2.2965,0.2186 h 3.2807 c 2.5882,0 4.7754,-0.7198 6.5614,-2.1597 1.7863,-1.44 2.9711,-3.3811 3.5541,-5.8233 0.0365,-0.1095 0.1459,-0.1548 0.3281,-0.1366 0.1824,0.018 0.2734,0.0818 0.2734,0.1913 -0.3281,3.4264 -0.4921,6.2697 -0.4921,8.5298 0,0.2917 -0.0547,0.5012 -0.1639,0.6289 -0.1095,0.1275 -0.3281,0.1913 -0.6562,0.1913 h -25.5895 c -0.073,0 -0.1095,-0.1095 -0.1095,-0.3281 0,-0.2187 0.0365,-0.3281 0.1095,-0.3281 1.2392,0 2.1415,-0.091 2.7065,-0.2734 0.565,-0.1822 0.9476,-0.5377 1.1483,-1.0662 0.2004,-0.5286 0.3008,-1.3396 0.3008,-2.4332 v -25.3161 c 0,-1.0935 -0.1004,-1.8955 -0.3008,-2.406 -0.2007,-0.5103 -0.5924,-0.8655 -1.1757,-1.0662 -0.5832,-0.2004 -1.4764,-0.3008 -2.6791,-0.3008 -0.073,0 -0.1095,-0.1092 -0.1095,-0.3278 0,-0.2189 0.0365,-0.3281 0.1095,-0.3281 l 2.7886,0.0547 c 1.6039,0.0727 2.9161,0.1092 3.9367,0.1092 1.0935,0 2.4422,-0.0365 4.0463,-0.1092 l 2.734,-0.0547 c 0.1092,0 0.1639,0.1092 0.1639,0.3281 0,0.2186 -0.0547,0.3278 -0.1639,0.3278 -1.2031,0 -2.0871,0.1004 -2.6521,0.3008 -0.565,0.2007 -0.9476,0.565 -1.148,1.0936 -0.2007,0.5285 -0.3008,1.3395 -0.3008,2.4334 z m 77.7747,3.9914 c 0.1825,0 0.2734,0.1094 0.2734,0.3281 0,0.2186 -0.0909,0.3281 -0.2734,0.3281 -0.6924,0 -1.8043,-0.0365 -3.3354,-0.1095 -1.5309,-0.0727 -2.6427,-0.1092 -3.3354,-0.1092 -0.9111,0 -1.9865,0.0365 -3.226,0.1092 -1.2392,0.073 -2.2053,0.1095 -2.8978,0.1095 -0.1459,0 -0.2189,-0.1095 -0.2189,-0.3281 0,-0.2187 0.073,-0.3281 0.2189,-0.3281 1.0571,0 1.8316,-0.1184 2.3237,-0.3553 0.492,-0.2369 0.7381,-0.6288 0.7381,-1.1756 0,-0.5468 -0.3096,-1.4764 -0.9294,-2.7887 l -4.1556,-8.4203 h -13.2322 l -2.6247,5.9051 c -0.4738,1.0936 -0.7107,2.0779 -0.7107,2.9526 0,1.276 0.4556,2.2418 1.367,2.8981 0.9113,0.6562 2.1871,0.9841 3.8274,0.9841 0.1822,0 0.2734,0.1094 0.2734,0.3281 0,0.2186 -0.0912,0.3281 -0.2734,0.3281 -0.6562,0 -1.6038,-0.0365 -2.8433,-0.1095 -1.3852,-0.0727 -2.588,-0.1092 -3.6088,-0.1092 -0.9841,0 -2.1324,0.0365 -3.4447,0.1092 -1.1665,0.073 -2.1324,0.1095 -2.8981,0.1095 -0.1821,0 -0.2733,-0.1095 -0.2733,-0.3281 0,-0.2187 0.0912,-0.3281 0.2733,-0.3281 1.0209,0 1.8776,-0.2005 2.57,-0.6013 0.6927,-0.4011 1.367,-1.1209 2.0232,-2.16 0.656,-1.0388 1.4399,-2.5788 2.3511,-4.6203 l 11.756,-26.4644 c 0.0727,-0.1094 0.2369,-0.1639 0.4921,-0.1639 0.2551,0 0.4008,0.0545 0.4373,0.1639 l 13.3964,27.0112 c 1.2757,2.6247 2.3419,4.4199 3.1986,5.386 0.8566,0.9658 1.7771,1.4488 2.7612,1.4488 z m -27.4485,-14.1071 h 11.9745 l -6.288,-12.7399 z m 56.8876,-13.6148 c 0,1.3487 0.337,2.5426 1.0115,3.5814 0.6742,1.0389 1.5126,1.9411 2.5152,2.7066 1.0024,0.7654 2.3602,1.6768 4.0735,2.7339 1.859,1.1665 3.3263,2.1688 4.4016,3.0073 1.0754,0.8384 1.9867,1.8681 2.7339,3.0893 0.7472,1.2213 1.121,2.6519 1.121,4.2922 0,1.8593 -0.483,3.5178 -1.4491,4.9757 -0.9658,1.4582 -2.3328,2.5974 -4.1008,3.4176 -1.7678,0.8201 -3.7819,1.2303 -6.042,1.2303 -1.5309,0 -3.1076,-0.2006 -4.7297,-0.6015 -1.6221,-0.4011 -2.8522,-0.8931 -3.6907,-1.4764 -0.3281,-0.2186 -0.5105,-0.565 -0.5467,-1.0388 l -0.3282,-8.3112 v -0.0547 c 0,-0.1457 0.091,-0.2278 0.2734,-0.246 0.1822,-0.0183 0.2917,0.0456 0.3282,0.1913 1.2027,3.0255 2.5788,5.5043 4.1282,7.4362 1.5491,1.932 3.5267,2.8981 5.9325,2.8981 1.5673,0 2.8798,-0.4282 3.9369,-1.2848 1.0571,-0.8567 1.5856,-2.2875 1.5856,-4.2924 0,-1.6039 -0.3555,-3.0073 -1.0662,-4.2104 -0.7107,-1.2027 -1.5856,-2.2053 -2.6244,-3.0073 -1.0391,-0.8019 -2.4517,-1.786 -4.2377,-2.9525 -1.7498,-1.1301 -3.1168,-2.0868 -4.1009,-2.8707 -0.9843,-0.7837 -1.8228,-1.7496 -2.5152,-2.8979 -0.6927,-1.1483 -1.0388,-2.4879 -1.0388,-4.019 0,-1.8955 0.5285,-3.4993 1.5856,-4.8116 1.057,-1.3122 2.4331,-2.2874 4.1282,-2.9254 1.6951,-0.6378 3.472,-0.9568 5.3312,-0.9568 1.2393,0 2.4788,0.1184 3.718,0.3555 1.2395,0.2369 2.2784,0.5377 3.1168,0.902 0.5468,0.219 0.8202,0.5651 0.8202,1.0391 l 0.1639,7.4363 c 0,0.1092 -0.1001,0.1822 -0.3008,0.2187 -0.2004,0.0364 -0.3187,0 -0.3552,-0.1095 -0.7292,-2.2236 -1.7042,-4.2374 -2.9255,-6.042 -1.221,-1.8042 -3.0529,-2.7065 -5.4951,-2.7065 -1.6404,0 -2.9435,0.4738 -3.9096,1.4217 -0.9658,0.9476 -1.4488,2.2418 -1.4488,3.8822 z"
       style="fill:#ffffff;fill-rule:evenodd"
       id="path2" />
    <g
       id="Layer1001">
      <path
         d="m 373.1238,160.8978 -158.0811,224.9679 -3.62,-2.4134 157.3915,-225.4852 z"
         style="fill:#ffffff;fill-rule:evenodd;stroke:#ffffff;stroke-width:0.5669;stroke-linecap:butt;stroke-linejoin:miter;stroke-dasharray:none"
         id="path4" />
      <path
         d="m 333.6847,102.8483 c 0.5457,0 0.8186,0.5458 0.8186,1.637 0,1.0914 -0.2729,1.6372 -0.8186,1.6372 -7.8215,0 -13.324,1.9098 -16.5072,5.7297 -3.1832,3.8199 -4.7745,10.368 -4.7745,19.6448 v 67.1682 l -6.0026,10.0308 v -77.199 c 0,-9.2768 -1.4553,-15.8249 -4.3657,-19.6448 -2.9103,-3.8199 -8.1853,-5.7297 -15.8251,-5.7297 -0.3638,0 -0.5457,-0.5458 -0.5457,-1.6372 0,-1.0912 0.1819,-1.637 0.5457,-1.637 l 10.3683,0.2729 c 5.4568,0.3638 9.8225,0.5457 13.0964,0.5457 3.0922,0 7.5488,-0.1819 13.3695,-0.5457 z m -49.645,143.2135 -98.237,-120.8403 -4.6385,-5.184 v 124.9631 c 0,9.2768 1.5462,15.7797 4.6385,19.5084 3.0922,3.729 8.4581,5.5935 16.0977,5.5935 0.5457,0 0.8186,0.5457 0.8186,1.6372 0,1.0912 -0.2729,1.6369 -0.8186,1.6369 -4.3654,0 -7.7305,-0.0909 -10.0951,-0.2728 l -13.0967,-0.2729 -13.3693,0.2729 c -2.3649,0.1819 -5.9116,0.2728 -10.6411,0.2728 -0.3638,0 -0.5457,-0.5457 -0.5457,-1.6369 0,-1.0915 0.1819,-1.6372 0.5457,-1.6372 7.8215,0 13.1876,-1.8189 16.098,-5.4569 2.9103,-3.638 4.3654,-10.1863 4.3654,-19.645 V 114.3078 c -6.3665,-5.4569 -12.9145,-8.1853 -19.6448,-8.1853 -0.5457,0 -0.8186,-0.5458 -0.8186,-1.6372 0,-1.0912 0.2729,-1.637 0.8186,-1.637 l 9.8225,0.2729 c 2.0008,0.1819 4.8202,0.2729 8.4582,0.2729 3.0922,0 5.6387,-0.091 7.6395,-0.2729 2.0011,-0.1819 3.5471,-0.2729 4.6385,-0.2729 1.2732,0 2.319,0.3182 3.1376,0.9549 0.8186,0.6367 1.7736,1.9555 2.865,3.9562 2.0008,3.2742 4.1835,6.3665 6.5481,9.2768 l 93.2561,115.9204 z"
         style="fill:#ffffff;fill-rule:evenodd"
         id="path6" />
      <path
         d="m 463.3387,251.1684 c 0.5457,0 0.8186,0.5458 0.8186,1.637 0,1.0915 -0.2729,1.6372 -0.8186,1.6372 -6.1845,0 -11.3232,1.3187 -15.4157,3.9562 -4.0928,2.6375 -7.6852,7.5942 -10.7774,14.8699 l -60.026,148.1552 c -0.1819,0.7276 -1.1824,1.0914 -3.0013,1.0914 -1.4553,0 -2.4556,-0.3638 -3.0013,-1.0914 l -61.3778,-134.4343 22.5491,12.8066 46.4682,102.5284 52.6593,-130.6928 c 1.2732,-3.0923 1.9099,-5.7298 1.9099,-7.9124 0,-3.2742 -1.6826,-5.6388 -5.0477,-7.0941 -3.3651,-1.4551 -8.8673,-2.1827 -16.5072,-2.1827 -0.5457,0 -0.8183,-0.5457 -0.8183,-1.6372 0,-1.0912 0.2726,-1.637 0.8183,-1.637 l 10.914,0.2729 c 6.1845,0.3638 11.6414,0.5457 16.3706,0.5457 3.8199,0 8.0943,-0.1819 12.8238,-0.5457 z"
         style="fill:#ffffff;fill-rule:evenodd"
         id="path8" />
    </g>
  </g>
</svg>
